<svg width="24" height="22" viewBox="0 0 24 22" fill="none" xmlns="http://www.w3.org/2000/svg">
<path opacity="0.78" d="M22.0995 0.935059H1.90051C0.850886 0.935059 0 1.78594 0 2.83557C0 3.88519 0.850886 4.73607 1.90051 4.73607H22.0995C23.1491 4.73607 24 3.88519 24 2.83557C24 1.78594 23.1491 0.935059 22.0995 0.935059Z" fill="#63616B"/>
<path opacity="0.78" d="M22.0995 9.21924H1.90051C0.850886 9.21924 0 10.0701 0 11.1197C0 12.1694 0.850886 13.0203 1.90051 13.0203H22.0995C23.1491 13.0203 24 12.1694 24 11.1197C24 10.0701 23.1491 9.21924 22.0995 9.21924Z" fill="#63616B"/>
<path opacity="0.78" d="M22.0995 17.5037H1.90051C0.850886 17.5037 0 18.3545 0 19.4042C0 20.4538 0.850886 21.3047 1.90051 21.3047H22.0995C23.1491 21.3047 24 20.4538 24 19.4042C24 18.3545 23.1491 17.5037 22.0995 17.5037Z" fill="#63616B"/>
</svg>
