<svg viewBox="0 0 21 30" fill="none" xmlns="http://www.w3.org/2000/svg">
<g clip-path="url(#clip0_271_469)" class='trash-cap'>
<path d="M18.7068 3.09835H2.54484C1.27831 3.09835 0.251587 4.05354 0.251587 5.23181V5.23689C0.251587 6.41517 1.27831 7.37035 2.54484 7.37035H18.7068C19.9733 7.37035 21 6.41517 21 5.23689V5.23181C21 4.05354 19.9733 3.09835 18.7068 3.09835Z" fill="#F27794"/>
<path d="M13.9019 0.0149994H7.34971C6.44333 0.0149994 5.71167 0.832825 5.71167 1.84368V5.76518H15.5399V1.84368C15.5399 0.832825 14.8082 0.0149994 13.9019 0.0149994ZM13.9019 4.54606H7.34971V2.10782H13.9019V4.54606Z" fill="#F27794"/>
</g>
<g clip-path="url(#clip0_271_469)" class='trash-can'>
<path d="M19.149 8.53359H2.1025C1.21796 8.53359 0.502686 9.20411 0.502686 10.0321L2.1025 26.9931C2.1025 28.644 3.53305 29.985 5.29667 29.985H15.9494C17.713 29.985 19.1435 28.644 19.1435 26.9931L20.7434 10.0321C20.7434 9.20411 20.0281 8.53359 19.1435 8.53359H19.149ZM6.43784 28.1868C6.00649 28.202 5.64612 27.9227 5.62428 27.5569L4.72336 11.0328C4.70152 10.667 5.03459 10.3572 5.46594 10.342C5.89729 10.3267 6.25765 10.6061 6.27949 10.9718L7.18041 27.496C7.20225 27.8617 6.86919 28.1716 6.43784 28.1868ZM11.4011 27.5315C11.4011 27.8973 11.0516 28.1919 10.6203 28.1919C10.1889 28.1919 9.83949 27.8973 9.83949 27.5315V10.9871C9.83949 10.6213 10.1889 10.3267 10.6203 10.3267C11.0516 10.3267 11.4011 10.6213 11.4011 10.9871V27.5315ZM15.6218 27.5569C15.5999 27.9227 15.2396 28.202 14.8082 28.1868C14.3769 28.1716 14.0438 27.8617 14.0656 27.496L14.9665 10.9718C14.9884 10.6061 15.3488 10.3267 15.7801 10.342C16.2115 10.3572 16.5445 10.667 16.5227 11.0328L15.6218 27.5569Z" fill="#F27794"/>
</g>
<defs>
<clipPath id="clip0_271_469">
<rect width="20.7485" height="29.97" fill="white" transform="translate(0.251587 0.0149994)"/>
</clipPath>
</defs>
</svg>
