<svg viewBox="0 0 28 28" fill="none" xmlns="http://www.w3.org/2000/svg">
<g clip-path="url(#clip0_271_1149)">
<path d="M20.8713 3.3534L10.1428 14.6349L13.3493 18.0067L24.0777 6.72519L20.8713 3.3534Z" fill="#77A0F2"/>
<path d="M26.8235 1.6586L25.6876 0.464198C25.1153 -0.137597 24.1892 -0.137597 23.6169 0.464198L21.9306 2.23743C21.8039 2.37065 21.8039 2.58656 21.9306 2.71978L24.6785 5.60932C24.8052 5.74254 25.0105 5.74254 25.1372 5.60932L26.8235 3.83609C27.3958 3.23429 27.3958 2.2604 26.8235 1.6586Z" fill="#77A0F2"/>
<path d="M8.37029 18.1827L7.43103 20.8563L9.97358 19.8687L12.5205 18.8764L10.9172 17.1904L9.31392 15.5045L8.37029 18.1827Z" fill="#77A0F2"/>
<path d="M20.4802 23.8929H4.50404V7.09314H15.5567L19.4492 3.00001H4.94964C2.55999 3.00001 0.611572 5.04887 0.611572 7.56631V23.4243C0.611572 25.9417 2.55999 27.986 4.94964 27.986H20.0302C22.4242 27.986 24.3683 25.9371 24.3683 23.4243V8.18188L20.4758 12.275V23.8975L20.4802 23.8929Z" fill="#77A0F2"/>
</g>
<defs>
<clipPath id="clip0_271_1149">
<rect width="26.64" height="27.972" fill="white" transform="translate(0.611572 0.0139999)"/>
</clipPath>
</defs>
</svg>
