<svg width="24" height="16" viewBox="0 0 24 16" fill="none" xmlns="http://www.w3.org/2000/svg">
<g clip-path="url(#clip0_322_11)">
<path d="M1.74405 3.61177C2.60418 3.61177 3.30145 2.95783 3.30145 2.15115C3.30145 1.34447 2.60418 0.690521 1.74405 0.690521C0.883919 0.690521 0.186646 1.34447 0.186646 2.15115C0.186646 2.95783 0.883919 3.61177 1.74405 3.61177Z" fill="url(#paint0_linear_322_11)"/>
<path d="M1.74405 3.61177C2.60418 3.61177 3.30145 2.95783 3.30145 2.15115C3.30145 1.34447 2.60418 0.690521 1.74405 0.690521C0.883919 0.690521 0.186646 1.34447 0.186646 2.15115C0.186646 2.95783 0.883919 3.61177 1.74405 3.61177Z" fill="white" fill-opacity="0.36"/>
<path d="M1.74405 3.61177C2.60418 3.61177 3.30145 2.95783 3.30145 2.15115C3.30145 1.34447 2.60418 0.690521 1.74405 0.690521C0.883919 0.690521 0.186646 1.34447 0.186646 2.15115C0.186646 2.95783 0.883919 3.61177 1.74405 3.61177Z" stroke="url(#paint1_linear_322_11)" stroke-width="0.29" stroke-linecap="round" stroke-linejoin="round"/>
<path d="M1.74405 3.61177C2.60418 3.61177 3.30145 2.95783 3.30145 2.15115C3.30145 1.34447 2.60418 0.690521 1.74405 0.690521C0.883919 0.690521 0.186646 1.34447 0.186646 2.15115C0.186646 2.95783 0.883919 3.61177 1.74405 3.61177Z" stroke="white" stroke-opacity="0.36" stroke-width="0.29" stroke-linecap="round" stroke-linejoin="round"/>
<path d="M22.6689 0.881027H8.33282C7.59767 0.881027 7.00171 1.44967 7.00171 2.15114C7.00171 2.8526 7.59767 3.42125 8.33282 3.42125H22.6689C23.4041 3.42125 24 2.8526 24 2.15114C24 1.44967 23.4041 0.881027 22.6689 0.881027Z" fill="url(#paint2_linear_322_11)"/>
<path d="M22.6689 0.881027H8.33282C7.59767 0.881027 7.00171 1.44967 7.00171 2.15114C7.00171 2.8526 7.59767 3.42125 8.33282 3.42125H22.6689C23.4041 3.42125 24 2.8526 24 2.15114C24 1.44967 23.4041 0.881027 22.6689 0.881027Z" fill="white" fill-opacity="0.36"/>
<path d="M1.74405 9.45427C2.60418 9.45427 3.30145 8.80033 3.30145 7.99365C3.30145 7.18696 2.60418 6.53302 1.74405 6.53302C0.883919 6.53302 0.186646 7.18696 0.186646 7.99365C0.186646 8.80033 0.883919 9.45427 1.74405 9.45427Z" fill="url(#paint3_linear_322_11)"/>
<path d="M1.74405 9.45427C2.60418 9.45427 3.30145 8.80033 3.30145 7.99365C3.30145 7.18696 2.60418 6.53302 1.74405 6.53302C0.883919 6.53302 0.186646 7.18696 0.186646 7.99365C0.186646 8.80033 0.883919 9.45427 1.74405 9.45427Z" fill="white" fill-opacity="0.36"/>
<path d="M1.74405 9.45427C2.60418 9.45427 3.30145 8.80033 3.30145 7.99365C3.30145 7.18696 2.60418 6.53302 1.74405 6.53302C0.883919 6.53302 0.186646 7.18696 0.186646 7.99365C0.186646 8.80033 0.883919 9.45427 1.74405 9.45427Z" stroke="url(#paint4_linear_322_11)" stroke-width="0.29" stroke-linecap="round" stroke-linejoin="round"/>
<path d="M1.74405 9.45427C2.60418 9.45427 3.30145 8.80033 3.30145 7.99365C3.30145 7.18696 2.60418 6.53302 1.74405 6.53302C0.883919 6.53302 0.186646 7.18696 0.186646 7.99365C0.186646 8.80033 0.883919 9.45427 1.74405 9.45427Z" stroke="white" stroke-opacity="0.36" stroke-width="0.29" stroke-linecap="round" stroke-linejoin="round"/>
<path d="M22.6689 6.73624H8.33282C7.59767 6.73624 7.00171 7.30488 7.00171 8.00635C7.00171 8.70781 7.59767 9.27646 8.33282 9.27646H22.6689C23.4041 9.27646 24 8.70781 24 8.00635C24 7.30488 23.4041 6.73624 22.6689 6.73624Z" fill="url(#paint5_linear_322_11)"/>
<path d="M22.6689 6.73624H8.33282C7.59767 6.73624 7.00171 7.30488 7.00171 8.00635C7.00171 8.70781 7.59767 9.27646 8.33282 9.27646H22.6689C23.4041 9.27646 24 8.70781 24 8.00635C24 7.30488 23.4041 6.73624 22.6689 6.73624Z" fill="white" fill-opacity="0.36"/>
<path d="M1.74405 15.3095C2.60418 15.3095 3.30145 14.6555 3.30145 13.8489C3.30145 13.0422 2.60418 12.3882 1.74405 12.3882C0.883919 12.3882 0.186646 13.0422 0.186646 13.8489C0.186646 14.6555 0.883919 15.3095 1.74405 15.3095Z" fill="url(#paint6_linear_322_11)"/>
<path d="M1.74405 15.3095C2.60418 15.3095 3.30145 14.6555 3.30145 13.8489C3.30145 13.0422 2.60418 12.3882 1.74405 12.3882C0.883919 12.3882 0.186646 13.0422 0.186646 13.8489C0.186646 14.6555 0.883919 15.3095 1.74405 15.3095Z" fill="white" fill-opacity="0.36"/>
<path d="M1.74405 15.3095C2.60418 15.3095 3.30145 14.6555 3.30145 13.8489C3.30145 13.0422 2.60418 12.3882 1.74405 12.3882C0.883919 12.3882 0.186646 13.0422 0.186646 13.8489C0.186646 14.6555 0.883919 15.3095 1.74405 15.3095Z" stroke="url(#paint7_linear_322_11)" stroke-width="0.29" stroke-linecap="round" stroke-linejoin="round"/>
<path d="M1.74405 15.3095C2.60418 15.3095 3.30145 14.6555 3.30145 13.8489C3.30145 13.0422 2.60418 12.3882 1.74405 12.3882C0.883919 12.3882 0.186646 13.0422 0.186646 13.8489C0.186646 14.6555 0.883919 15.3095 1.74405 15.3095Z" stroke="white" stroke-opacity="0.36" stroke-width="0.29" stroke-linecap="round" stroke-linejoin="round"/>
<path d="M22.6689 12.5788H8.33282C7.59767 12.5788 7.00171 13.1474 7.00171 13.8489C7.00171 14.5503 7.59767 15.119 8.33282 15.119H22.6689C23.4041 15.119 24 14.5503 24 13.8489C24 13.1474 23.4041 12.5788 22.6689 12.5788Z" fill="url(#paint8_linear_322_11)"/>
<path d="M22.6689 12.5788H8.33282C7.59767 12.5788 7.00171 13.1474 7.00171 13.8489C7.00171 14.5503 7.59767 15.119 8.33282 15.119H22.6689C23.4041 15.119 24 14.5503 24 13.8489C24 13.1474 23.4041 12.5788 22.6689 12.5788Z" fill="white" fill-opacity="0.36"/>
</g>
<defs>
<linearGradient id="paint0_linear_322_11" x1="0.186646" y1="2.15115" x2="3.30145" y2="2.15115" gradientUnits="userSpaceOnUse">
<stop stop-color="#7784F2"/>
<stop offset="1" stop-color="#77ABF2"/>
</linearGradient>
<linearGradient id="paint1_linear_322_11" x1="0.186646" y1="2.15115" x2="3.30145" y2="2.15115" gradientUnits="userSpaceOnUse">
<stop stop-color="#7784F2"/>
<stop offset="1" stop-color="#77ABF2"/>
</linearGradient>
<linearGradient id="paint2_linear_322_11" x1="7.00171" y1="2.15114" x2="24" y2="2.15114" gradientUnits="userSpaceOnUse">
<stop stop-color="#7784F2"/>
<stop offset="1" stop-color="#77ABF2"/>
</linearGradient>
<linearGradient id="paint3_linear_322_11" x1="0.186646" y1="7.99365" x2="3.30145" y2="7.99365" gradientUnits="userSpaceOnUse">
<stop stop-color="#7784F2"/>
<stop offset="1" stop-color="#77ABF2"/>
</linearGradient>
<linearGradient id="paint4_linear_322_11" x1="0.186646" y1="7.99365" x2="3.30145" y2="7.99365" gradientUnits="userSpaceOnUse">
<stop stop-color="#7784F2"/>
<stop offset="1" stop-color="#77ABF2"/>
</linearGradient>
<linearGradient id="paint5_linear_322_11" x1="7.00171" y1="8.00635" x2="24" y2="8.00635" gradientUnits="userSpaceOnUse">
<stop stop-color="#7784F2"/>
<stop offset="1" stop-color="#77ABF2"/>
</linearGradient>
<linearGradient id="paint6_linear_322_11" x1="0.186646" y1="13.8489" x2="3.30145" y2="13.8489" gradientUnits="userSpaceOnUse">
<stop stop-color="#7784F2"/>
<stop offset="1" stop-color="#77ABF2"/>
</linearGradient>
<linearGradient id="paint7_linear_322_11" x1="0.186646" y1="13.8489" x2="3.30145" y2="13.8489" gradientUnits="userSpaceOnUse">
<stop stop-color="#7784F2"/>
<stop offset="1" stop-color="#77ABF2"/>
</linearGradient>
<linearGradient id="paint8_linear_322_11" x1="7.00171" y1="13.8489" x2="24" y2="13.8489" gradientUnits="userSpaceOnUse">
<stop stop-color="#7784F2"/>
<stop offset="1" stop-color="#77ABF2"/>
</linearGradient>
<clipPath id="clip0_322_11">
<rect width="24" height="15" fill="white" transform="translate(0 0.5)"/>
</clipPath>
</defs>
</svg>
