<svg width="55" height="55" viewBox="0 0 55 55" fill="none" xmlns="http://www.w3.org/2000/svg">
<g clip-path="url(#clip0_392_191)">
<path d="M43.12 0H9.93C4.46 0 0 4.46 0 9.93V44.45C0 49.93 4.46 54.38 9.93 54.38H44.45C49.93 54.38 54.38 49.92 54.38 44.45V11.27L43.12 0ZM12.8 6.22H41.59V16.16H12.8V6.22ZM45.48 42.6C45.48 44.43 44 45.91 42.17 45.91H12.22C10.39 45.91 8.91 44.43 8.91 42.6V26.48C8.91 24.65 10.39 23.17 12.22 23.17H42.17C44 23.17 45.48 24.65 45.48 26.48V42.6Z" fill="#9177f2"/>
<path d="M39.15 8.22H35.03C34.787 8.22 34.59 8.417 34.59 8.66V13.72C34.59 13.963 34.787 14.16 35.03 14.16H39.15C39.393 14.16 39.59 13.963 39.59 13.72V8.66C39.59 8.417 39.393 8.22 39.15 8.22Z" fill="#9177f2"/>
</g>
<defs>
<clipPath id="clip0_392_191">
<rect width="54.39" height="54.39" fill="white"/>
</clipPath>
</defs>
</svg>
