<svg viewBox="0 0 37 30" fill="none" xmlns="http://www.w3.org/2000/svg">
<g clip-path="url(#clip0_57_388)">
<path d="M36.0462 26L23.5655 17.4121C26.1959 12.1746 24.6267 5.68277 19.5859 2.21129C13.9918 -1.6343 6.22457 -0.335935 2.27319 5.11611C0.359601 7.75686 -0.37987 10.9698 0.184612 14.1552C0.749094 17.3406 2.54979 20.1244 5.2593 21.9894C7.43256 23.4858 9.92757 24.201 12.4056 24.201C15.4934 24.201 18.5472 23.0787 20.8842 20.9551L33.4439 29.598C33.839 29.8731 34.2963 29.9997 34.7422 29.9997C35.4534 29.9997 36.1478 29.6751 36.5881 29.0699C37.3049 28.0796 37.0622 26.7042 36.0462 26.0055V26ZM6.23586 20.636C3.89326 19.024 2.34093 16.6254 1.84983 13.8746C1.36438 11.1238 2.00789 8.35103 3.65618 6.07338C5.31011 3.79023 7.77125 2.2773 10.5937 1.79867C11.2089 1.69414 11.8242 1.64463 12.4395 1.64463C14.6353 1.64463 16.7747 2.30481 18.6037 3.55917C23.4356 6.88211 24.5872 13.418 21.1777 18.1273C17.7682 22.8366 11.0622 23.9589 6.23021 20.636H6.23586Z" fill="#9177F2"/>
</g>
<defs>
<clipPath id="clip0_57_388">
<rect width="37" height="30" fill="white"/>
</clipPath>
</defs>
</svg>
